<svg xmlns="http://www.w3.org/2000/svg" viewBox="0 0 402.68 271.71"><defs><style>.cls-1{isolation:isolate;}.cls-2{fill:#f1f1f3;}.cls-3,.cls-9{fill:#424261;}.cls-3{opacity:0.1;}.cls-15,.cls-3,.cls-9{mix-blend-mode:multiply;}.cls-4{fill:#e3eaff;}.cls-5{fill:#6b68ed;}.cls-6{fill:#6138fb;}.cls-7{fill:#5400ff;}.cls-8{fill:#c8d6f2;}.cls-9{opacity:0.2;}.cls-10{fill:#fff;}.cls-11{fill:#6db8ff;}.cls-12{fill:#c5cae0;}.cls-13{fill:#f9dc06;}.cls-14{fill:#e9ebfb;}.cls-15{fill:#b6b6b6;opacity:0.12;}.cls-16{fill:#f97482;}.cls-17{fill:#ffc3bf;}.cls-18{fill:#5a5060;}.cls-19{fill:#393f5c;}.cls-20{fill:#3f00bd;}</style></defs><title>Ativo 1</title><g class="cls-1"><g id="Camada_2" data-name="Camada 2"><g id="Objects"><path class="cls-2" d="M125.1,54.4s25.22,6.75,65.79-23.49S280-13.1,333,16.26,416.19,109,396.76,158c-17.7,44.69-83.47,98.37-198.53,93.56S4.42,180.32,8.87,127.72C12.76,81.71,38.39,47.93,125.1,54.4Z"/><ellipse class="cls-3" cx="209.45" cy="233.7" rx="185.13" ry="2.48"/><rect class="cls-4" x="83.2" y="46.49" width="254.82" height="181.06" rx="11.4" ry="11.4"/><rect class="cls-5" x="86.55" y="48.87" width="248.11" height="176.29" rx="9.04" ry="9.04"/><rect class="cls-6" x="97.28" y="57.17" width="226.66" height="152.44" rx="5.57" ry="5.57"/><circle class="cls-7" cx="207.27" cy="53.34" r="2.13"/><path class="cls-4" d="M77,218.16a9.45,9.45,0,0,0-1.19,4.53,9.56,9.56,0,0,0,9.56,9.56H335.84a9.56,9.56,0,0,0,9.56-9.56,9.45,9.45,0,0,0-1.19-4.53Z"/><path class="cls-8" d="M77,227.21a9.51,9.51,0,0,0,8.37,5H335.84a9.52,9.52,0,0,0,8.37-5Z"/><rect class="cls-9" x="114.5" y="88.36" width="203.97" height="112.09"/><rect class="cls-10" x="106.83" y="80.69" width="203.97" height="112.09"/><path class="cls-11" d="M116.92,65.83H300.71A10.09,10.09,0,0,1,310.8,75.92v4.76a0,0,0,0,1,0,0h-204a0,0,0,0,1,0,0V75.92A10.09,10.09,0,0,1,116.92,65.83Z"/><circle class="cls-10" cx="121.18" cy="73.25" r="1.97"/><circle class="cls-10" cx="127.81" cy="73.25" r="1.97"/><circle class="cls-10" cx="134.44" cy="73.25" r="1.97"/><path class="cls-12" d="M119.09,155h50.15a1,1,0,0,0,0-2H119.09a1,1,0,0,0,0,2Z"/><path class="cls-12" d="M119.09,160.62h50.15a1,1,0,0,0,0-2H119.09a1,1,0,0,0,0,2Z"/><path class="cls-12" d="M119.09,166.26h50.15a1,1,0,0,0,0-2H119.09a1,1,0,0,0,0,2Z"/><path class="cls-12" d="M119.09,171.9h50.15a1,1,0,0,0,0-2H119.09a1,1,0,0,0,0,2Z"/><path class="cls-12" d="M119.09,177.55h50.15a1,1,0,0,0,0-2H119.09a1,1,0,0,0,0,2Z"/><path class="cls-12" d="M119.09,183.19h50.15a1,1,0,0,0,0-2H119.09a1,1,0,0,0,0,2Z"/><rect class="cls-13" x="121.26" y="93.81" width="45.82" height="50.37" rx="22.91" ry="22.91"/><path class="cls-10" d="M150.83,126.33a2.9,2.9,0,0,0-2.68,1.79h-4.68a2.9,2.9,0,0,0-2.58-1.78l-.75-2,9-.07,5.53-10.77-18.4.46L135,110.48h-4.45a1.11,1.11,0,0,0,0,2.22h2.91l5.38,14.41a2.9,2.9,0,1,0,4.65,3.22h4.68a2.9,2.9,0,1,0,2.68-4Z"/><path class="cls-14" d="M297,161.46v23.46a2.82,2.82,0,0,1-2.82,2.82h-110a2.82,2.82,0,0,1-2.82-2.82V161.46a2.82,2.82,0,0,1,2.82-2.82h110Z"/><rect class="cls-15" x="186.77" y="168.46" width="43.54" height="14.26" rx="0.87" ry="0.87"/><rect class="cls-6" x="191.89" y="164.48" width="41.78" height="14.26" rx="0.85" ry="0.85"/><path class="cls-10" d="M226.86,169.77H197.38a.46.46,0,1,1,0-.93h29.49a.46.46,0,1,1,0,.93Z"/><path class="cls-10" d="M211,174.36H197.38a.46.46,0,1,1,0-.93H211a.46.46,0,1,1,0,.93Z"/><polygon class="cls-6" points="245.31 167.47 246.49 169.88 249.15 170.27 247.23 172.14 247.68 174.78 245.31 173.53 242.93 174.78 243.38 172.14 241.46 170.27 244.12 169.88 245.31 167.47"/><polygon class="cls-6" points="255.97 167.47 257.16 169.88 259.82 170.27 257.9 172.14 258.35 174.78 255.97 173.53 253.6 174.78 254.05 172.14 252.13 170.27 254.79 169.88 255.97 167.47"/><polygon class="cls-6" points="266.64 167.47 267.83 169.88 270.49 170.27 268.56 172.14 269.02 174.78 266.64 173.53 264.27 174.78 264.72 172.14 262.8 170.27 265.46 169.88 266.64 167.47"/><polygon class="cls-10" points="277.31 167.47 278.5 169.88 281.16 170.27 279.24 172.14 279.69 174.78 277.31 173.53 274.94 174.78 275.39 172.14 273.47 170.27 276.13 169.88 277.31 167.47"/><polygon class="cls-10" points="287.98 167.47 289.17 169.88 291.83 170.27 289.9 172.14 290.36 174.78 287.98 173.53 285.61 174.78 286.06 172.14 284.14 170.27 286.8 169.88 287.98 167.47"/><path class="cls-14" d="M297.25,94.29V150a4,4,0,0,1-4,4H185.35a4,4,0,0,1-4-4V94.29a4,4,0,0,1,4-4H293.24Z"/><path class="cls-10" d="M278.44,109.46a9,9,0,0,0-3.6.75A10.58,10.58,0,0,0,254,111.77a8,8,0,1,0,2.79,15.79h21.69a9.05,9.05,0,0,0,0-18.1Z"/><polygon class="cls-13" points="272.01 129.68 272.01 123.15 261.19 123.15 261.19 129.68 259.53 129.68 266.6 138.06 273.68 129.68 272.01 129.68"/><path class="cls-12" d="M188.9,134.84h50.15a1,1,0,0,0,0-2H188.9a1,1,0,0,0,0,2Z"/><path class="cls-12" d="M188.9,140.48h50.15a1,1,0,0,0,0-2H188.9a1,1,0,0,0,0,2Z"/><path class="cls-12" d="M188.9,146.12h50.15a1,1,0,0,0,0-2H188.9a1,1,0,0,0,0,2Z"/><rect class="cls-10" x="187.95" y="118.61" width="51.15" height="4.1"/><rect class="cls-6" x="205.48" y="118.61" width="33.62" height="4.1"/><rect class="cls-10" x="187.95" y="106.82" width="51.15" height="4.1"/><rect class="cls-6" x="222.94" y="106.82" width="16.16" height="4.1"/><ellipse class="cls-3" cx="61.77" cy="269.79" rx="61.77" ry="1.92"/><path class="cls-16" d="M57.16,110.89H67a11.35,11.35,0,0,1,7.2,5c2.56,4,4.62,13,.54,18.2,0,0-3.89,8.52-3.65,11.06l-19.31.68-4.71-28.53a4.55,4.55,0,0,1,3.63-5.2Z"/><path class="cls-17" d="M55.21,112.42c1,1,3.12,7.53-11.55,28.11,0,0,12.34,13.2,14.93,20.11L55,164.5S42.87,151,37.72,142.8,49.47,106.69,55.21,112.42Z"/><path class="cls-17" d="M64.73,112.62c5-4.39,21.09,9,26.07,11.74,0,0,14.2-11.38,19.78-17.48l4.24,3.11s-16,19.84-21.6,21C78.22,134,53.42,122.55,64.73,112.62Z"/><path class="cls-17" d="M108.78,109.87s2.49-2.2,2.35-7.34a3.87,3.87,0,0,1,.64-2.17l7-11s1.84,1.34-2.24,7.78c0,0,3.12,4.4,2.06,7a27.41,27.41,0,0,1-3.81,5.85Z"/><path class="cls-18" d="M58.07,75.79A28.16,28.16,0,0,0,55,78.29a5.52,5.52,0,0,1-2.24,1.21c-1.65.45-8.59-.74-8.32,7.39a46.31,46.31,0,0,1-3.16,19.2l-1,2.51c-4.2,10.28,2.74,10.13,6.23,16.58s-3.61,18.22,18.13,19c11.3.43,22.92-5.34,17.88-16.73,0,0,.14-6.26,4.11-8.67s6.84-14.18-3.54-16.57S80.15,96,80.25,91C80.45,80.18,74,65.17,58.07,75.79Z"/><path class="cls-17" d="M33.11,248l-5.63,14.93,16.62,6.2h0a3.48,3.48,0,0,0-1.82-4.78l-6.35-2.54,3.94-11.26Z"/><path class="cls-19" d="M28.8,259.41l7.12,2.39,6.88,2.74a3,3,0,0,1,1.29,4.58h0l-16.62-6.2Z"/><path class="cls-17" d="M67.34,253l.24,16,17.73-.33h0a3.48,3.48,0,0,0-3.45-3.78l-6.84,0-.46-11.93Z"/><path class="cls-19" d="M67.52,265.16l7.5-.39,7.4,0a3,3,0,0,1,2.88,3.79h0l-17.73.33Z"/><path class="cls-7" d="M71.1,145s4.05,9.15,6.88,25.18c.89,5,1.83,18.27,2.39,27.12a108.87,108.87,0,0,1-.22,16.6l-4,44.28-9.61.41h0l-.72-50.82L54.92,145.69Z"/><path class="cls-7" d="M51.76,145.69s-7.65,11.43-6.89,30.38l-.05,6.47a158.4,158.4,0,0,1-7.62,47.28L29,255.27h0l9.38,2.79,19-47.92,6.68-35.81.46-29.08Z"/><polygon class="cls-20" points="61.96 185.68 60.08 171.22 52.58 169.37 58.44 179.55 57.4 210.15 61.96 185.68"/></g></g></g></svg>