<svg xmlns="http://www.w3.org/2000/svg" viewBox="0 0 778.87 528.64"><defs><style>.cls-1{fill:#79f2c4;}.cls-2{font-size:129.76px;font-family:ArialRoundedMTBold, Arial Rounded MT Bold;}.cls-2,.cls-6,.cls-8{fill:#00a99d;}.cls-3{letter-spacing:-0.02em;}.cls-4{letter-spacing:-0.04em;}.cls-5{letter-spacing:0em;}.cls-6{opacity:0.25;}.cls-7{fill:#fff;}</style></defs><title>logo_marca</title><g id="Camada_2" data-name="Camada 2"><g id="Camada_1-2" data-name="Camada 1"><polygon class="cls-1" points="401.39 312 223.44 312 223.44 528.64 293.6 528.64 555.43 528.64 555.43 312 401.39 312"/><text class="cls-2" transform="translate(0 112.11)">Ma<tspan class="cls-3" x="185.2" y="0">r</tspan><tspan class="cls-4" x="238.8" y="0">k</tspan><tspan class="cls-5" x="308.24" y="0">etplace</tspan></text><polygon class="cls-6" points="223.44 312 223.44 528.64 293.68 528.64 401.6 312 223.44 312"/><rect class="cls-7" x="261.14" y="327.75" width="256.59" height="150.24"/><path class="cls-1" d="M291,199a40.14,40.14,0,0,0-38,27.18l-27.24,79.85a39.26,39.26,0,0,0,67.79,38.85,39.24,39.24,0,0,0,63.93,0,39.35,39.35,0,0,0,20.42,14.74L457.8,199Z"/><path class="cls-6" d="M291,199a40.14,40.14,0,0,0-38,27.18l-27.24,79.85a39.26,39.26,0,0,0,67.79,38.85,39.24,39.24,0,0,0,63.93,0,39.35,39.35,0,0,0,20.42,14.74L457.8,199Z"/><path class="cls-1" d="M553.12,306.06l-27.24-79.85a40.14,40.14,0,0,0-38-27.18H457.8L377.89,359.65a39.25,39.25,0,0,0,43.51-14.74,39.24,39.24,0,0,0,63.93,0,39.26,39.26,0,0,0,67.79-38.85Z"/><path class="cls-8" d="M222.39,324.6a39.26,39.26,0,0,0,71.15,20.31,39.24,39.24,0,0,0,63.93,0,39.35,39.35,0,0,0,20.42,14.74L401.6,312H223.65A39.25,39.25,0,0,0,222.39,324.6Z"/><path class="cls-8" d="M401.6,312l-23.71,47.66a39.25,39.25,0,0,0,43.51-14.74,39.24,39.24,0,0,0,63.93,0A39.25,39.25,0,0,0,555.22,312Z"/></g></g></svg>